{
  "accessors": [
    {
      "bufferView": 2,
      "componentType": 5126,
      "count": 3,
      "max": [
        0.015010000206530094,
        6.2193098068237305,
        63.482444763183594
      ],
      "min": [
        -0.015010000206530094,
        6.2193098068237305,
        63.456768035888672
      ],
      "type": "VEC3"
    },
    {
      "bufferView": 1,
      "componentType": 5126,
      "count": 3,
      "max": [
        0,
        0
      ],
      "min": [
        0,
        0
      ],
      "type": "VEC2"
    },
    {
      "bufferView": 0,
      "componentType": 5125,
      "count": 4,
      "max": [
        2
      ],
      "min": [
        0
      ],
      "type": "SCALAR"
    },
    {
      "bufferView": 2,
      "byteOffset": 36,
      "componentType": 5126,
      "count": 5798,
      "max": [
        34.19696044921875,
        9.1893062591552734,
        77.815895080566406
      ],
      "min": [
        -34.19696044921875,
        -9.6106433868408203,
        0
      ],
      "type": "VEC3"
    },
    {
      "bufferView": 2,
      "byteOffset": 69612,
      "componentType": 5126,
      "count": 5798,
      "max": [
        1,
        1,
        1
      ],
      "min": [
        -1,
        -1,
        -1
      ],
      "type": "VEC3"
    },
    {
      "bufferView": 3,
      "componentType": 5126,
      "count": 5798,
      "max": [
        1,
        1,
        1,
        1
      ],
      "min": [
        -1,
        -1,
        -1,
        -1
      ],
      "type": "VEC4"
    },
    {
      "bufferView": 1,
      "byteOffset": 24,
      "componentType": 5126,
      "count": 5798,
      "max": [
        0.99592399597167969,
        0.99767601490020752
      ],
      "min": [
        0.0023219999857246876,
        0.0023209999781101942
      ],
      "type": "VEC2"
    },
    {
      "bufferView": 0,
      "byteOffset": 16,
      "componentType": 5125,
      "count": 18879,
      "max": [
        5797
      ],
      "min": [
        0
      ],
      "type": "SCALAR"
    }
  ],
  "asset": {
    "extras": {
      "author": "Interiors3D (https://sketchfab.com/Interiors3D)",
      "license": "CC-BY-4.0 (http://creativecommons.org/licenses/by/4.0/)",
      "source": "https://sketchfab.com/3d-models/hmj000-72e82bcd34b74e2f8bed73369cd6f04a",
      "title": "HMJ000"
    },
    "generator": "Sketchfab-10.9.0",
    "version": "2.0"
  },
  "bufferViews": [
    {
      "buffer": 0,
      "byteLength": 75532,
      "byteOffset": 0,
      "name": "floatBufferViews",
      "target": 34963
    },
    {
      "buffer": 0,
      "byteLength": 46408,
      "byteOffset": 75532,
      "byteStride": 8,
      "name": "floatBufferViews",
      "target": 34962
    },
    {
      "buffer": 0,
      "byteLength": 139188,
      "byteOffset": 121940,
      "byteStride": 12,
      "name": "floatBufferViews",
      "target": 34962
    },
    {
      "buffer": 0,
      "byteLength": 92768,
      "byteOffset": 261128,
      "byteStride": 16,
      "name": "floatBufferViews",
      "target": 34962
    }
  ],
  "buffers": [
    {
      "byteLength": 353896,
      "uri": "scene.bin"
    }
  ],
  "images": [
    {
      "uri": "textures/paint_baseColor.jpeg"
    },
    {
      "uri": "textures/paint_metallicRoughness.png"
    },
    {
      "uri": "textures/paint_normal.png"
    }
  ],
  "materials": [
    {
      "doubleSided": true,
      "name": "paint",
      "normalTexture": {
        "index": 2,
        "scale": 1,
        "texCoord": 0
      },
      "pbrMetallicRoughness": {
        "baseColorFactor": [
          0.90000000000000002,
          0.90000000000000002,
          0.90000000000000002,
          1
        ],
        "baseColorTexture": {
          "index": 0,
          "texCoord": 0
        },
        "metallicFactor": 0,
        "metallicRoughnessTexture": {
          "index": 1,
          "texCoord": 0
        },
        "roughnessFactor": 1
      }
    }
  ],
  "meshes": [
    {
      "primitives": [
        {
          "attributes": {
            "POSITION": 0,
            "TEXCOORD_0": 1
          },
          "indices": 2,
          "material": 0,
          "mode": 1
        }
      ]
    },
    {
      "primitives": [
        {
          "attributes": {
            "NORMAL": 4,
            "POSITION": 3,
            "TANGENT": 5,
            "TEXCOORD_0": 6
          },
          "indices": 7,
          "material": 0,
          "mode": 4
        }
      ]
    }
  ],
  "nodes": [
    {
      "children": [
        1
      ],
      "name": "RootNode (gltf orientation matrix)",
      "rotation": [
        -0.70710678118654746,
        -0,
        -0,
        0.70710678118654757
      ]
    },
    {
      "children": [
        2
      ],
      "name": "RootNode (model correction matrix)"
    },
    {
      "children": [
        3,
        4
      ],
      "name": "W01- HMJ000 - Sketchfab - mesh.obj.cleaner.materialmerger.gles"
    },
    {
      "mesh": 0,
      "name": ""
    },
    {
      "mesh": 1,
      "name": ""
    }
  ],
  "samplers": [
    {
      "magFilter": 9729,
      "minFilter": 9987,
      "wrapS": 10497,
      "wrapT": 10497
    }
  ],
  "scene": 0,
  "scenes": [
    {
      "name": "OSG_Scene",
      "nodes": [
        0
      ]
    }
  ],
  "textures": [
    {
      "sampler": 0,
      "source": 0
    },
    {
      "sampler": 0,
      "source": 1
    },
    {
      "sampler": 0,
      "source": 2
    }
  ]
}

